<?xml version="1.0" encoding="UTF-8" standalone="no"?>
<svg
   xmlns:dc="http://purl.org/dc/elements/1.1/"
   xmlns:cc="http://creativecommons.org/ns#"
   xmlns:rdf="http://www.w3.org/1999/02/22-rdf-syntax-ns#"
   xmlns:svg="http://www.w3.org/2000/svg"
   xmlns="http://www.w3.org/2000/svg"
   xmlns:sodipodi="http://sodipodi.sourceforge.net/DTD/sodipodi-0.dtd"
   xmlns:inkscape="http://www.inkscape.org/namespaces/inkscape"
   version="1.1"
   id="svg2"
   xml:space="preserve"
   width="533.33331"
   height="533.33331"
   viewBox="0 0 533.33331 533.33331"
   sodipodi:docname="bear-part1.ai"><metadata
     id="metadata8"><rdf:RDF><cc:Work
         rdf:about=""><dc:format>image/svg+xml</dc:format><dc:type
           rdf:resource="http://purl.org/dc/dcmitype/StillImage" /></cc:Work></rdf:RDF></metadata><defs
     id="defs6"><clipPath
       clipPathUnits="userSpaceOnUse"
       id="clipPath18"><path
         d="M 0,400 H 400 V 0 H 0 Z"
         id="path16" /></clipPath></defs><sodipodi:namedview
     pagecolor="#ffffff"
     bordercolor="#666666"
     borderopacity="1"
     objecttolerance="10"
     gridtolerance="10"
     guidetolerance="10"
     inkscape:pageopacity="0"
     inkscape:pageshadow="2"
     inkscape:window-width="640"
     inkscape:window-height="480"
     id="namedview4" /><g
     id="g10"
     inkscape:groupmode="layer"
     inkscape:label="bear-part1"
     transform="matrix(1.3333333,0,0,-1.3333333,0,533.33333)"><g
       id="g12"><g
         id="g14"
         clip-path="url(#clipPath18)"><g
           id="g20"
           transform="translate(156.9796,282.4286)"><path
             d="m 0,0 c 0,-17.358 -14.071,-31.429 -31.429,-31.429 -17.357,0 -31.428,14.071 -31.428,31.429 0,17.358 14.071,31.429 31.428,31.429 C -14.071,31.429 0,17.358 0,0"
             style="fill:#8c6239;fill-opacity:1;fill-rule:nonzero;stroke:none"
             id="path22" /></g><g
           id="g24"
           transform="translate(320.9796,282.4286)"><path
             d="m 0,0 c 0,-17.358 -14.071,-31.429 -31.429,-31.429 -17.357,0 -31.428,14.071 -31.428,31.429 0,17.358 14.071,31.429 31.428,31.429 C -14.071,31.429 0,17.358 0,0"
             style="fill:#8c6239;fill-opacity:1;fill-rule:nonzero;stroke:none"
             id="path26" /></g><g
           id="g28"
           transform="translate(142.9796,280.7755)"><path
             d="m 0,0 c 0,-8.713 -7.063,-15.776 -15.776,-15.776 -8.712,0 -15.775,7.063 -15.775,15.776 0,8.713 7.063,15.776 15.775,15.776 C -7.063,15.776 0,8.713 0,0"
             style="fill:#42210b;fill-opacity:1;fill-rule:nonzero;stroke:none"
             id="path30" /></g><g
           id="g32"
           transform="translate(300.9796,281.7755)"><path
             d="m 0,0 c 0,-8.713 -7.063,-15.776 -15.776,-15.776 -8.712,0 -15.775,7.063 -15.775,15.776 0,8.713 7.063,15.776 15.775,15.776 C -7.063,15.776 0,8.713 0,0"
             style="fill:#42210b;fill-opacity:1;fill-rule:nonzero;stroke:none"
             id="path34" /></g><g
           id="g36"
           transform="translate(307.1837,209.5714)"><path
             d="m 0,0 c 0,-54.665 -44.315,-98.98 -98.98,-98.98 -54.665,0 -98.979,44.315 -98.979,98.98 0,54.665 44.314,98.98 98.979,98.98 C -44.315,98.98 0,54.665 0,0"
             style="fill:#8c6239;fill-opacity:1;fill-rule:nonzero;stroke:none"
             id="path38" /></g><g
           id="g40"
           transform="translate(185.6327,240.898)"><path
             d="m 0,0 c 0,-4.508 -3.655,-8.163 -8.163,-8.163 -4.509,0 -8.164,3.655 -8.164,8.163 0,4.508 3.655,8.163 8.164,8.163 C -3.655,8.163 0,4.508 0,0"
             style="fill:#000000;fill-opacity:1;fill-rule:nonzero;stroke:none"
             id="path42" /></g><g
           id="g44"
           transform="translate(246.6327,239.898)"><path
             d="m 0,0 c 0,-4.508 -3.655,-8.163 -8.163,-8.163 -4.509,0 -8.164,3.655 -8.164,8.163 0,4.508 3.655,8.163 8.164,8.163 C -3.655,8.163 0,4.508 0,0"
             style="fill:#000000;fill-opacity:1;fill-rule:nonzero;stroke:none"
             id="path46" /></g><g
           id="g48"
           transform="translate(263.4286,182.6429)"><path
             d="m 0,0 c 0,-34.383 -24.652,-62.255 -55.061,-62.255 -30.41,0 -55.061,27.872 -55.061,62.255 0,34.383 24.09,43.561 54.5,43.561 C -25.213,43.561 0,34.383 0,0"
             style="fill:#c69c6d;fill-opacity:1;fill-rule:nonzero;stroke:none"
             id="path50" /></g><g
           id="g52"
           transform="translate(234.4694,194.5816)"><path
             d="m 0,0 c 0,-5.754 -11.828,-10.418 -26.418,-10.418 -14.591,0 -26.419,4.664 -26.419,10.418 0,5.754 11.828,10.418 26.419,10.418 C -11.828,10.418 0,5.754 0,0"
             style="fill:#42210b;fill-opacity:1;fill-rule:nonzero;stroke:none"
             id="path54" /></g><g
           id="g56"
           transform="translate(243.2418,165.831)"><path
             d="M 0,0 C -20.179,-19.2 -52.044,-18.409 -71.244,1.77"
             style="fill:none;stroke:#000000;stroke-width:6;stroke-linecap:butt;stroke-linejoin:miter;stroke-miterlimit:10;stroke-dasharray:none;stroke-opacity:1"
             id="path58" /></g></g></g></g></svg>
